<svg xmlns="http://www.w3.org/2000/svg" width="169" height="31" fill="none" viewBox="0 0 169 31">
  <path fill="#171100" d="M17.367 1.21v5.33H6.926v6.058c.487-.2 1.074-.358 1.761-.473a10.732 10.732 0 0 1 2.192-.215c1.432 0 2.764.358 3.996 1.074 1.26.688 2.277 1.662 3.05 2.922.774 1.232 1.16 2.693 1.16 4.383 0 2.234-.5 4.125-1.503 5.672a9.805 9.805 0 0 1-3.996 3.48c-1.662.803-3.51 1.204-5.543 1.204-1.92 0-3.552-.301-4.898-.903-1.347-.63-2.392-1.246-3.137-1.848v-5.328a84.31 84.31 0 0 0 3.265 1.891c1.146.602 2.464.902 3.954.902 1.718 0 3.136-.358 4.253-1.074 1.118-.745 1.676-1.848 1.676-3.308 0-1.318-.573-2.378-1.719-3.18-1.117-.802-2.52-1.203-4.21-1.203-1.089 0-2.092.114-3.008.343a45.24 45.24 0 0 0-2.535.731V1.211h15.683ZM34.125.567c2.464 0 4.512.688 6.145 2.063 1.661 1.346 2.893 3.165 3.695 5.457.83 2.263 1.246 4.77 1.246 7.52s-.415 5.27-1.246 7.562c-.802 2.263-2.034 4.082-3.696 5.457-1.632 1.346-3.68 2.02-6.144 2.02-2.463 0-4.526-.674-6.188-2.02-1.632-1.375-2.864-3.194-3.695-5.457-.802-2.292-1.203-4.813-1.203-7.563s.401-5.256 1.203-7.52c.83-2.29 2.063-4.11 3.695-5.456C29.6 1.254 31.662.566 34.126.566Zm0 5.2c-1.146 0-2.105.444-2.879 1.332-.745.859-1.303 2.034-1.676 3.523-.372 1.461-.558 3.122-.558 4.984s.186 3.538.558 5.028c.373 1.46.931 2.62 1.676 3.48.774.86 1.733 1.29 2.879 1.29s2.091-.43 2.836-1.29c.773-.86 1.346-2.02 1.719-3.48.4-1.49.601-3.166.601-5.027 0-1.863-.2-3.524-.601-4.985-.373-1.49-.946-2.664-1.72-3.523-.744-.888-1.69-1.332-2.835-1.332ZM56.684 1.21V14.1L67.64 1.212h7.562l-11.3 12.59L76.492 30h-7.821L59.82 18.355l-3.136 3.524V30H50.71V1.21h5.973Z"/>
  <path fill="#5F5B53" d="M95.391 30.126c-.828 0-1.572-.144-2.232-.432-.648-.3-1.158-.708-1.53-1.224a3.178 3.178 0 0 1-.576-1.818H92.8c.06.588.3 1.086.72 1.494.432.396 1.056.594 1.872.594.78 0 1.392-.192 1.836-.576.456-.396.684-.9.684-1.512 0-.48-.132-.87-.396-1.17a2.53 2.53 0 0 0-.99-.684c-.396-.156-.93-.324-1.602-.504-.828-.216-1.494-.432-1.998-.648a3.318 3.318 0 0 1-1.278-1.008c-.348-.468-.522-1.092-.522-1.872 0-.684.174-1.29.522-1.818.348-.528.834-.936 1.458-1.224.636-.288 1.362-.432 2.178-.432 1.176 0 2.136.294 2.88.882.756.588 1.182 1.368 1.278 2.34h-1.8c-.06-.48-.312-.9-.756-1.26-.444-.372-1.032-.558-1.764-.558-.684 0-1.242.18-1.674.54-.432.348-.648.84-.648 1.476 0 .456.126.828.378 1.116.264.288.582.51.954.666.384.144.918.312 1.602.504.828.228 1.494.456 1.998.684.504.216.936.558 1.296 1.026.36.456.54 1.08.54 1.872 0 .612-.162 1.188-.486 1.728-.324.54-.804.978-1.44 1.314-.636.336-1.386.504-2.25.504Zm8.585-8.64V27.3c0 .48.102.822.306 1.026.204.192.558.288 1.062.288h1.206V30h-1.476c-.912 0-1.596-.21-2.052-.63-.456-.42-.684-1.11-.684-2.07v-5.814h-1.278v-1.35h1.278v-2.484h1.638v2.484h2.574v1.35h-2.574Zm13.306-1.35V30h-1.638v-1.458c-.312.504-.75.9-1.314 1.188a4.047 4.047 0 0 1-1.836.414c-.768 0-1.458-.156-2.07-.468a3.582 3.582 0 0 1-1.458-1.44c-.348-.636-.522-1.41-.522-2.322v-5.778h1.62v5.562c0 .972.246 1.722.738 2.25.492.516 1.164.774 2.016.774.876 0 1.566-.27 2.07-.81.504-.54.756-1.326.756-2.358v-5.418h1.638Zm2.154 4.896c0-1.008.204-1.89.612-2.646a4.446 4.446 0 0 1 1.674-1.782c.72-.42 1.524-.63 2.412-.63.768 0 1.482.18 2.142.54.66.348 1.164.81 1.512 1.386v-5.22h1.656V30h-1.656v-1.854c-.324.588-.804 1.074-1.44 1.458-.636.372-1.38.558-2.232.558a4.564 4.564 0 0 1-2.394-.648c-.708-.432-1.266-1.038-1.674-1.818-.408-.78-.612-1.668-.612-2.664Zm8.352.018c0-.744-.15-1.392-.45-1.944a3.098 3.098 0 0 0-1.224-1.26 3.211 3.211 0 0 0-1.674-.45c-.612 0-1.17.144-1.674.432a3.134 3.134 0 0 0-1.206 1.26c-.3.552-.45 1.2-.45 1.944 0 .756.15 1.416.45 1.98.3.552.702.978 1.206 1.278a3.314 3.314 0 0 0 1.674.432c.612 0 1.17-.144 1.674-.432.516-.3.924-.726 1.224-1.278.3-.564.45-1.218.45-1.962Zm13.424-.36c0 .312-.018.642-.054.99h-7.884c.06.972.39 1.734.99 2.286.612.54 1.35.81 2.214.81.708 0 1.296-.162 1.764-.486.48-.336.816-.78 1.008-1.332h1.764a4.284 4.284 0 0 1-1.584 2.322c-.792.588-1.776.882-2.952.882-.936 0-1.776-.21-2.52-.63a4.492 4.492 0 0 1-1.728-1.782c-.42-.78-.63-1.68-.63-2.7 0-1.02.204-1.914.612-2.682a4.254 4.254 0 0 1 1.71-1.764c.744-.42 1.596-.63 2.556-.63.936 0 1.764.204 2.484.612.72.408 1.272.972 1.656 1.692.396.708.594 1.512.594 2.412Zm-1.692-.342c0-.624-.138-1.158-.414-1.602a2.605 2.605 0 0 0-1.134-1.026c-.468-.24-.99-.36-1.566-.36-.828 0-1.536.264-2.124.792-.576.528-.906 1.26-.99 2.196h6.228Zm8.66-4.392c1.2 0 2.172.366 2.916 1.098.744.72 1.116 1.764 1.116 3.132V30h-1.62v-5.58c0-.984-.246-1.734-.738-2.25-.492-.528-1.164-.792-2.016-.792-.864 0-1.554.27-2.07.81-.504.54-.756 1.326-.756 2.358V30h-1.638v-9.864h1.638v1.404a3.266 3.266 0 0 1 1.314-1.17 4.16 4.16 0 0 1 1.854-.414Zm8.706 1.53V27.3c0 .48.102.822.306 1.026.204.192.558.288 1.062.288h1.206V30h-1.476c-.912 0-1.596-.21-2.052-.63-.456-.42-.684-1.11-.684-2.07v-5.814h-1.278v-1.35h1.278v-2.484h1.638v2.484h2.574v1.35h-2.574Zm8.051 8.676c-.756 0-1.434-.126-2.034-.378-.6-.264-1.074-.624-1.422-1.08a2.92 2.92 0 0 1-.576-1.602h1.692c.048.492.276.894.684 1.206.42.312.966.468 1.638.468.624 0 1.116-.138 1.476-.414.36-.276.54-.624.54-1.044 0-.432-.192-.75-.576-.954-.384-.216-.978-.426-1.782-.63a14.665 14.665 0 0 1-1.8-.576 3.418 3.418 0 0 1-1.188-.882c-.324-.396-.486-.912-.486-1.548 0-.504.15-.966.45-1.386.3-.42.726-.75 1.278-.99.552-.252 1.182-.378 1.89-.378 1.092 0 1.974.276 2.646.828.672.552 1.032 1.308 1.08 2.268h-1.638c-.036-.516-.246-.93-.63-1.242-.372-.312-.876-.468-1.512-.468-.588 0-1.056.126-1.404.378-.348.252-.522.582-.522.99 0 .324.102.594.306.81.216.204.48.372.792.504.324.12.768.258 1.332.414.708.192 1.284.384 1.728.576.444.18.822.456 1.134.828.324.372.492.858.504 1.458 0 .54-.15 1.026-.45 1.458-.3.432-.726.774-1.278 1.026-.54.24-1.164.36-1.872.36Z"/>
</svg>
