<svg xmlns="http://www.w3.org/2000/svg" width="157" height="31" fill="none" viewBox="0 0 157 31">
  <path fill="#171100" d="M21.074 1.21v2.45a325.535 325.535 0 0 0-4.168 7.133 68.69 68.69 0 0 0-3.18 6.316 36.709 36.709 0 0 0-2.019 6.145c-.458 2.091-.688 4.34-.688 6.746H4.146c0-2.836.472-5.572 1.418-8.207a48.668 48.668 0 0 1 3.566-7.777 302.46 302.46 0 0 1 4.34-7.477H.664V1.211h20.41ZM35.125.567c2.464 0 4.512.688 6.145 2.063 1.661 1.346 2.893 3.165 3.695 5.457.83 2.263 1.246 4.77 1.246 7.52s-.415 5.27-1.246 7.562c-.802 2.263-2.034 4.082-3.696 5.457-1.632 1.346-3.68 2.02-6.144 2.02s-4.526-.674-6.188-2.02c-1.632-1.375-2.864-3.194-3.695-5.457-.802-2.292-1.203-4.813-1.203-7.563s.401-5.256 1.203-7.52c.83-2.29 2.063-4.11 3.695-5.456C30.6 1.254 32.662.566 35.126.566Zm0 5.2c-1.146 0-2.105.444-2.879 1.332-.745.859-1.303 2.034-1.676 3.523-.372 1.461-.558 3.122-.558 4.984s.186 3.538.558 5.028c.373 1.46.931 2.62 1.676 3.48.773.86 1.733 1.29 2.879 1.29s2.091-.43 2.836-1.29c.773-.86 1.346-2.02 1.719-3.48.4-1.49.601-3.166.601-5.027 0-1.863-.2-3.524-.601-4.985-.373-1.49-.946-2.664-1.72-3.523-.744-.888-1.69-1.332-2.835-1.332Zm32.484 8.207v5.156h-5.8v5.844h-5.157V19.13h-5.8v-5.156h5.8V8.172h5.157v5.8h5.8Z"/>
  <path fill="#5F5B53" d="M84.712 23.718c0-1.224.275-2.322.828-3.294a6.017 6.017 0 0 1 2.25-2.304c.96-.552 2.021-.828 3.185-.828 1.369 0 2.563.33 3.583.99 1.02.66 1.763 1.596 2.231 2.808h-1.962c-.347-.756-.852-1.338-1.511-1.746-.648-.408-1.428-.612-2.34-.612-.876 0-1.662.204-2.358.612-.697.408-1.242.99-1.638 1.746-.397.744-.595 1.62-.595 2.628 0 .996.198 1.872.594 2.628.397.744.942 1.32 1.639 1.728.696.408 1.482.612 2.358.612.912 0 1.692-.198 2.34-.594.66-.408 1.163-.99 1.511-1.746h1.963c-.469 1.2-1.213 2.13-2.233 2.79-1.02.648-2.213.972-3.582.972-1.163 0-2.225-.27-3.185-.81a6.053 6.053 0 0 1-2.25-2.286c-.553-.972-.829-2.07-.829-3.294Zm18.818 6.444c-.924 0-1.764-.21-2.52-.63a4.58 4.58 0 0 1-1.764-1.782c-.42-.78-.63-1.68-.63-2.7 0-1.008.216-1.896.648-2.664a4.51 4.51 0 0 1 1.8-1.782c.756-.42 1.602-.63 2.538-.63.936 0 1.782.21 2.538.63.756.408 1.35.996 1.782 1.764.444.768.666 1.662.666 2.682s-.228 1.92-.684 2.7a4.634 4.634 0 0 1-1.818 1.782c-.768.42-1.62.63-2.556.63Zm0-1.44c.588 0 1.14-.138 1.656-.414.516-.276.93-.69 1.242-1.242.324-.552.486-1.224.486-2.016s-.156-1.464-.468-2.016c-.312-.552-.72-.96-1.224-1.224a3.356 3.356 0 0 0-1.638-.414c-.6 0-1.152.138-1.656.414-.492.264-.888.672-1.188 1.224-.3.552-.45 1.224-.45 2.016 0 .804.144 1.482.432 2.034.3.552.696.966 1.188 1.242a3.372 3.372 0 0 0 1.62.396Zm15.959-8.586V30h-1.638v-1.458c-.312.504-.75.9-1.314 1.188a4.047 4.047 0 0 1-1.836.414c-.768 0-1.458-.156-2.07-.468a3.582 3.582 0 0 1-1.458-1.44c-.348-.636-.522-1.41-.522-2.322v-5.778h1.62v5.562c0 .972.246 1.722.738 2.25.492.516 1.164.774 2.016.774.876 0 1.566-.27 2.07-.81.504-.54.756-1.326.756-2.358v-5.418h1.638Zm4.404 1.602a3.16 3.16 0 0 1 1.224-1.314c.54-.312 1.194-.468 1.962-.468v1.692h-.432c-1.836 0-2.754.996-2.754 2.988V30h-1.638v-9.864h1.638v1.602Zm8.569 8.424c-.756 0-1.434-.126-2.034-.378-.6-.264-1.074-.624-1.422-1.08a2.92 2.92 0 0 1-.576-1.602h1.692c.048.492.276.894.684 1.206.42.312.966.468 1.638.468.624 0 1.116-.138 1.476-.414.36-.276.54-.624.54-1.044 0-.432-.192-.75-.576-.954-.384-.216-.978-.426-1.782-.63a14.665 14.665 0 0 1-1.8-.576 3.418 3.418 0 0 1-1.188-.882c-.324-.396-.486-.912-.486-1.548 0-.504.15-.966.45-1.386.3-.42.726-.75 1.278-.99.552-.252 1.182-.378 1.89-.378 1.092 0 1.974.276 2.646.828.672.552 1.032 1.308 1.08 2.268h-1.638c-.036-.516-.246-.93-.63-1.242-.372-.312-.876-.468-1.512-.468-.588 0-1.056.126-1.404.378-.348.252-.522.582-.522.99 0 .324.102.594.306.81.216.204.48.372.792.504.324.12.768.258 1.332.414.708.192 1.284.384 1.728.576.444.18.822.456 1.134.828.324.372.492.858.504 1.458 0 .54-.15 1.026-.45 1.458-.3.432-.726.774-1.278 1.026-.54.24-1.164.36-1.872.36Zm14.912-5.472c0 .312-.018.642-.054.99h-7.884c.06.972.39 1.734.99 2.286.612.54 1.35.81 2.214.81.708 0 1.296-.162 1.764-.486.48-.336.816-.78 1.008-1.332h1.764a4.284 4.284 0 0 1-1.584 2.322c-.792.588-1.776.882-2.952.882-.936 0-1.776-.21-2.52-.63a4.492 4.492 0 0 1-1.728-1.782c-.42-.78-.63-1.68-.63-2.7 0-1.02.204-1.914.612-2.682a4.254 4.254 0 0 1 1.71-1.764c.744-.42 1.596-.63 2.556-.63.936 0 1.764.204 2.484.612.72.408 1.272.972 1.656 1.692.396.708.594 1.512.594 2.412Zm-1.692-.342c0-.624-.138-1.158-.414-1.602a2.605 2.605 0 0 0-1.134-1.026c-.468-.24-.99-.36-1.566-.36-.828 0-1.536.264-2.124.792-.576.528-.906 1.26-.99 2.196h6.228Zm7.346 5.814c-.756 0-1.434-.126-2.034-.378-.6-.264-1.074-.624-1.422-1.08a2.92 2.92 0 0 1-.576-1.602h1.692c.048.492.276.894.684 1.206.42.312.966.468 1.638.468.624 0 1.116-.138 1.476-.414.36-.276.54-.624.54-1.044 0-.432-.192-.75-.576-.954-.384-.216-.978-.426-1.782-.63a14.665 14.665 0 0 1-1.8-.576 3.418 3.418 0 0 1-1.188-.882c-.324-.396-.486-.912-.486-1.548 0-.504.15-.966.45-1.386.3-.42.726-.75 1.278-.99.552-.252 1.182-.378 1.89-.378 1.092 0 1.974.276 2.646.828.672.552 1.032 1.308 1.08 2.268H154.9c-.036-.516-.246-.93-.63-1.242-.372-.312-.876-.468-1.512-.468-.588 0-1.056.126-1.404.378-.348.252-.522.582-.522.99 0 .324.102.594.306.81.216.204.48.372.792.504.324.12.768.258 1.332.414.708.192 1.284.384 1.728.576.444.18.822.456 1.134.828.324.372.492.858.504 1.458 0 .54-.15 1.026-.45 1.458-.3.432-.726.774-1.278 1.026-.54.24-1.164.36-1.872.36Z"/>
</svg>
